<svg id="svg" version="1.1" xmlns="http://www.w3.org/2000/svg" xmlns:xlink="http://www.w3.org/1999/xlink" width="400" height="398.1609195402299" viewBox="0, 0, 400,398.1609195402299"><g id="svgg"><path id="path0" d="M224.314 56.760 C 223.965 57.180,223.086 57.371,221.489 57.371 C 220.214 57.371,219.060 57.550,218.924 57.769 C 218.789 57.988,217.534 58.167,216.135 58.167 C 214.737 58.167,213.482 58.347,213.347 58.566 C 213.211 58.785,211.946 58.964,210.534 58.964 C 209.089 58.964,207.968 59.138,207.968 59.363 C 207.968 59.587,206.856 59.761,205.427 59.761 C 203.655 59.761,202.736 59.942,202.390 60.359 C 202.044 60.775,201.126 60.956,199.354 60.956 C 197.925 60.956,196.813 61.131,196.813 61.355 C 196.813 61.579,195.692 61.753,194.247 61.753 C 192.835 61.753,191.570 61.932,191.434 62.151 C 191.299 62.371,190.055 62.550,188.671 62.550 C 186.919 62.550,186.002 62.732,185.657 63.147 C 185.320 63.553,184.418 63.745,182.843 63.745 C 181.568 63.745,180.414 63.924,180.279 64.143 C 180.143 64.363,178.878 64.542,177.467 64.542 C 176.021 64.542,174.900 64.716,174.900 64.940 C 174.900 65.164,173.788 65.339,172.360 65.339 C 170.587 65.339,169.669 65.519,169.323 65.936 C 168.978 66.352,168.061 66.534,166.309 66.534 C 164.925 66.534,163.681 66.713,163.546 66.932 C 163.410 67.151,162.145 67.331,160.733 67.331 C 159.288 67.331,158.167 67.505,158.167 67.729 C 158.167 67.953,157.055 68.127,155.626 68.127 C 153.854 68.127,152.936 68.308,152.590 68.725 C 152.253 69.131,151.350 69.323,149.776 69.323 C 148.501 69.323,147.347 69.502,147.211 69.721 C 147.076 69.940,145.821 70.120,144.422 70.120 C 143.024 70.120,141.769 70.299,141.633 70.518 C 141.498 70.737,140.232 70.916,138.821 70.916 C 137.376 70.916,136.255 71.090,136.255 71.315 C 136.255 71.544,135.010 71.713,133.316 71.713 C 131.189 71.713,130.239 71.878,129.880 72.311 C 129.535 72.727,128.619 72.908,126.867 72.908 C 125.483 72.908,124.239 73.088,124.104 73.307 C 123.968 73.526,122.703 73.705,121.291 73.705 C 119.846 73.705,118.725 73.879,118.725 74.104 C 118.725 74.328,117.613 74.502,116.184 74.502 C 114.412 74.502,113.493 74.683,113.147 75.100 C 112.801 75.516,111.883 75.697,110.111 75.697 C 108.682 75.697,107.570 75.872,107.570 76.096 C 107.570 76.320,106.449 76.494,105.004 76.494 C 103.592 76.494,102.327 76.673,102.191 76.892 C 102.056 77.112,100.809 77.291,99.422 77.291 C 97.546 77.291,96.839 77.444,96.669 77.888 C 96.498 78.334,95.785 78.486,93.861 78.486 C 92.442 78.486,91.171 78.665,91.036 78.884 C 90.900 79.104,89.635 79.283,88.223 79.283 C 86.778 79.283,85.657 79.457,85.657 79.681 C 85.657 79.905,84.545 80.080,83.117 80.080 C 81.344 80.080,80.426 80.260,80.080 80.677 C 79.734 81.094,78.815 81.275,77.043 81.275 C 75.615 81.275,74.502 81.449,74.502 81.673 C 74.502 81.898,73.381 82.072,71.936 82.072 C 70.524 82.072,69.259 82.251,69.124 82.470 C 68.988 82.689,67.733 82.869,66.335 82.869 C 64.936 82.869,63.681 83.048,63.546 83.267 C 63.410 83.486,62.256 83.665,60.981 83.665 C 59.407 83.665,58.504 83.857,58.167 84.263 C 57.822 84.679,56.906 84.861,55.154 84.861 C 53.769 84.861,52.526 85.040,52.390 85.259 C 52.255 85.478,50.989 85.657,49.578 85.657 C 48.133 85.657,47.012 85.831,47.012 86.056 C 47.012 86.275,46.664 86.454,46.239 86.454 C 45.813 86.454,45.364 86.618,45.241 86.818 C 45.079 87.079,44.931 241.894,45.019 318.227 C 45.020 319.022,45.220 319.124,46.789 319.124 C 47.762 319.124,48.669 319.303,48.805 319.522 C 48.940 319.741,49.915 319.920,50.971 319.920 C 52.191 319.920,53.071 320.138,53.386 320.518 C 53.732 320.935,54.651 321.116,56.423 321.116 C 57.852 321.116,58.964 321.290,58.964 321.514 C 58.964 321.733,59.940 321.912,61.132 321.912 C 62.324 321.912,63.410 322.092,63.546 322.311 C 63.681 322.530,64.835 322.709,66.110 322.709 C 67.685 322.709,68.587 322.901,68.924 323.307 C 69.253 323.702,70.144 323.904,71.563 323.904 C 72.741 323.904,73.705 324.084,73.705 324.303 C 73.705 324.527,74.826 324.701,76.271 324.701 C 77.683 324.701,78.948 324.880,79.084 325.100 C 79.219 325.319,80.194 325.498,81.250 325.498 C 82.482 325.498,83.349 325.715,83.672 326.104 C 84.036 326.542,84.819 326.684,86.506 326.618 C 87.916 326.562,89.027 326.716,89.319 327.008 C 89.584 327.273,90.651 327.490,91.690 327.490 C 92.728 327.490,93.689 327.669,93.825 327.888 C 93.960 328.108,95.215 328.287,96.614 328.287 C 98.012 328.287,99.267 328.466,99.402 328.685 C 99.538 328.904,100.513 329.084,101.568 329.084 C 102.789 329.084,103.669 329.301,103.984 329.681 C 104.330 330.098,105.248 330.279,107.021 330.279 C 108.449 330.279,109.562 330.453,109.562 330.677 C 109.562 330.896,110.537 331.076,111.729 331.076 C 112.922 331.076,114.008 331.255,114.143 331.474 C 114.279 331.693,115.433 331.873,116.708 331.873 C 118.282 331.873,119.185 332.064,119.522 332.470 C 119.850 332.866,120.742 333.068,122.160 333.068 C 123.339 333.068,124.303 333.247,124.303 333.466 C 124.303 333.691,125.424 333.865,126.869 333.865 C 128.280 333.865,129.546 334.044,129.681 334.263 C 129.817 334.482,130.791 334.661,131.847 334.661 C 133.068 334.661,133.948 334.879,134.263 335.259 C 134.609 335.676,135.527 335.857,137.300 335.857 C 138.728 335.857,139.841 336.031,139.841 336.255 C 139.841 336.479,140.962 336.653,142.407 336.653 C 143.818 336.653,145.084 336.833,145.219 337.052 C 145.355 337.271,146.422 337.450,147.590 337.450 C 149.112 337.450,149.781 337.620,149.945 338.048 C 150.116 338.494,150.828 338.645,152.753 338.645 C 154.171 338.645,155.442 338.825,155.578 339.044 C 155.713 339.263,156.699 339.442,157.769 339.442 C 158.839 339.442,159.825 339.622,159.960 339.841 C 160.096 340.060,161.351 340.239,162.749 340.239 C 164.147 340.239,165.402 340.418,165.538 340.637 C 165.673 340.857,166.648 341.036,167.704 341.036 C 168.924 341.036,169.804 341.254,170.120 341.633 C 170.466 342.050,171.384 342.231,173.156 342.231 C 174.585 342.231,175.697 342.406,175.697 342.629 C 175.697 342.849,176.673 343.028,177.865 343.028 C 179.057 343.028,180.143 343.207,180.279 343.426 C 180.414 343.645,181.568 343.825,182.843 343.825 C 184.418 343.825,185.320 344.016,185.657 344.422 C 185.986 344.818,186.877 345.020,188.296 345.020 C 189.474 345.020,190.438 345.199,190.438 345.418 C 190.438 345.643,191.559 345.817,193.004 345.817 C 194.416 345.817,195.681 345.996,195.817 346.215 C 195.952 346.434,196.927 346.614,197.983 346.614 C 199.203 346.614,200.083 346.831,200.398 347.211 C 200.744 347.627,201.660 347.809,203.412 347.809 C 204.796 347.809,206.040 347.988,206.175 348.207 C 206.311 348.426,207.297 348.606,208.367 348.606 C 209.436 348.606,210.422 348.785,210.558 349.004 C 210.693 349.223,211.964 349.402,213.383 349.402 C 215.307 349.402,216.019 349.554,216.191 350.000 C 216.354 350.425,217.017 350.598,218.489 350.598 C 219.627 350.598,220.747 350.787,220.979 351.019 C 221.211 351.250,222.367 351.385,223.549 351.318 L 225.697 351.195 225.697 203.818 C 225.697 54.298,225.705 55.084,224.314 56.760 M281.175 87.284 C 280.559 87.959,280.552 88.048,281.116 88.048 C 281.466 88.048,282.380 88.675,283.147 89.442 C 283.914 90.209,284.762 90.837,285.030 90.837 C 285.299 90.837,285.940 91.285,286.454 91.833 C 286.969 92.380,287.647 92.829,287.960 92.829 C 288.274 92.829,288.883 93.277,289.314 93.825 C 289.745 94.373,290.404 94.821,290.778 94.821 C 291.152 94.821,291.716 95.179,292.032 95.618 C 292.348 96.056,292.894 96.414,293.246 96.414 C 293.597 96.414,294.306 96.863,294.821 97.410 C 295.335 97.958,295.966 98.406,296.223 98.406 C 296.479 98.406,297.014 98.765,297.410 99.203 C 297.807 99.641,298.367 100.000,298.654 100.000 C 298.941 100.000,299.804 100.627,300.571 101.394 C 301.338 102.161,302.209 102.789,302.507 102.789 C 302.805 102.789,303.469 103.237,303.984 103.785 C 304.499 104.333,305.126 104.781,305.378 104.781 C 305.631 104.781,306.258 105.229,306.773 105.777 C 307.288 106.325,307.996 106.773,308.348 106.773 C 308.700 106.773,309.246 107.131,309.562 107.570 C 309.878 108.008,310.442 108.367,310.816 108.367 C 311.190 108.367,311.849 108.815,312.279 109.363 C 312.710 109.910,313.323 110.359,313.641 110.359 C 313.959 110.359,314.544 110.717,314.940 111.155 C 315.337 111.594,315.865 111.952,316.114 111.952 C 316.363 111.952,317.232 112.580,318.045 113.347 C 318.859 114.114,319.767 114.741,320.065 114.741 C 320.362 114.741,320.942 115.189,321.353 115.737 C 321.765 116.285,322.390 116.733,322.742 116.733 C 323.094 116.733,323.715 117.100,324.120 117.548 C 324.526 117.997,325.425 118.633,326.117 118.961 C 326.809 119.289,327.604 120.043,327.883 120.636 C 328.163 121.228,328.771 122.430,329.236 123.307 L 330.080 124.900 330.279 186.454 L 330.478 248.008 344.256 248.113 C 357.850 248.216,358.045 248.206,358.798 247.374 C 359.545 246.548,359.562 244.823,359.562 167.450 L 359.562 88.371 358.367 87.414 L 357.171 86.458 319.522 86.489 C 282.947 86.520,281.853 86.542,281.175 87.284 M239.243 132.060 C 238.586 132.813,237.764 133.438,237.416 133.448 C 237.069 133.458,236.303 134.007,235.714 134.668 L 234.643 135.871 234.752 142.736 L 234.861 149.602 268.185 149.703 C 299.340 149.799,301.527 149.850,301.774 150.494 C 302.097 151.334,302.064 198.154,301.740 198.997 C 301.538 199.523,297.472 199.610,268.584 199.699 L 235.657 199.801 235.657 208.765 L 235.657 217.729 268.508 217.831 C 286.576 217.887,301.492 218.066,301.654 218.229 C 302.209 218.788,302.166 231.780,301.607 232.454 C 301.156 232.998,297.350 233.068,268.270 233.068 L 235.442 233.068 235.550 241.135 L 235.657 249.203 268.504 249.305 C 294.174 249.385,301.419 249.515,301.665 249.903 C 302.076 250.549,302.076 264.988,301.665 265.635 C 301.419 266.023,294.094 266.153,268.105 266.233 L 234.861 266.335 234.752 273.853 C 234.677 279.061,234.784 281.540,235.100 281.920 C 235.481 282.380,240.988 282.470,268.551 282.470 C 292.196 282.470,301.624 282.595,301.819 282.910 C 302.167 283.474,302.155 297.266,301.805 298.368 L 301.541 299.199 268.201 299.301 L 234.861 299.402 234.753 307.690 C 234.664 314.500,234.748 316.080,235.222 316.554 C 235.919 317.250,317.403 317.441,318.695 316.749 C 320.884 315.577,320.735 322.330,320.721 225.014 L 320.709 135.683 319.238 134.176 C 318.429 133.347,317.457 132.669,317.078 132.669 C 316.668 132.669,316.339 132.307,316.263 131.773 L 316.135 130.876 278.287 130.784 L 240.438 130.691 239.243 132.060 M148.987 150.378 C 149.251 150.696,150.124 151.165,150.928 151.422 C 151.732 151.679,152.561 152.047,152.769 152.239 C 152.977 152.432,153.562 152.590,154.069 152.590 C 155.674 152.590,163.745 159.420,163.745 160.779 C 163.745 161.019,164.193 161.637,164.741 162.151 C 165.289 162.666,165.737 163.404,165.737 163.791 C 165.737 164.178,165.916 164.606,166.135 164.741 C 166.355 164.876,166.534 165.515,166.534 166.159 C 166.534 166.803,166.700 167.331,166.904 167.331 C 167.107 167.331,167.480 168.362,167.733 169.622 C 167.986 170.881,168.447 173.145,168.758 174.650 C 169.436 177.936,169.577 196.016,168.924 196.016 C 168.705 196.016,168.526 196.558,168.526 197.221 C 168.526 198.140,168.289 198.516,167.530 198.805 C 166.770 199.094,166.534 199.470,166.534 200.389 C 166.534 201.051,166.355 201.594,166.135 201.594 C 165.916 201.594,165.737 201.866,165.737 202.199 C 165.737 202.532,165.289 203.515,164.741 204.382 C 164.193 205.250,163.745 206.337,163.745 206.798 C 163.745 207.704,159.052 212.749,158.209 212.749 C 157.525 212.749,156.689 213.646,156.513 214.570 C 156.430 215.003,155.976 215.394,155.474 215.466 C 154.902 215.548,154.582 215.869,154.582 216.362 C 154.582 216.849,154.307 217.131,153.834 217.131 C 153.422 217.131,152.862 217.400,152.590 217.729 C 152.305 218.072,151.436 218.327,150.549 218.327 C 149.699 218.327,149.004 218.506,149.004 218.725 C 149.004 218.944,148.656 219.124,148.231 219.124 C 147.805 219.124,147.347 219.303,147.211 219.522 C 147.076 219.741,146.514 219.920,145.964 219.920 C 145.413 219.920,144.694 220.189,144.365 220.518 C 143.874 221.009,142.355 221.116,135.832 221.116 L 127.897 221.116 127.793 238.944 L 127.689 256.773 118.127 256.773 L 108.566 256.773 108.463 203.785 C 108.407 174.641,108.446 150.573,108.550 150.299 C 108.853 149.503,148.325 149.580,148.987 150.378 M128.175 170.763 C 128.017 170.920,127.888 177.653,127.888 185.724 L 127.888 200.398 133.454 200.398 C 140.337 200.398,143.515 198.750,146.099 193.841 C 147.641 190.912,147.978 180.182,146.575 178.705 C 146.377 178.497,146.215 178.085,146.215 177.790 C 146.215 177.494,145.767 176.837,145.219 176.330 C 144.671 175.822,144.223 175.142,144.223 174.819 C 144.223 173.973,141.415 171.497,140.025 171.118 C 138.468 170.693,128.542 170.396,128.175 170.763 " stroke="none" fill="#fafbfb" fill-rule="evenodd"></path><path id="path1" d="M0.000 199.203 L 0.000 398.406 200.000 398.406 L 400.000 398.406 400.000 200.000 C 400.000 2.125,399.998 1.591,399.203 0.797 C 398.408 0.002,397.875 0.000,199.203 0.000 L 0.000 0.000 0.000 199.203 M226.196 203.890 L 226.296 351.793 223.494 351.793 C 221.371 351.793,220.637 351.648,220.463 351.195 C 220.298 350.766,219.627 350.598,218.085 350.598 C 216.903 350.598,215.936 350.418,215.936 350.199 C 215.936 349.972,214.741 349.801,213.147 349.801 C 211.554 349.801,210.359 349.630,210.359 349.402 C 210.359 349.183,209.373 349.004,208.167 349.004 C 206.962 349.004,205.976 348.825,205.976 348.606 C 205.976 348.382,204.864 348.207,203.435 348.207 C 201.663 348.207,200.744 348.026,200.398 347.610 C 200.070 347.214,199.178 347.012,197.760 347.012 C 196.582 347.012,195.618 346.833,195.618 346.614 C 195.618 346.389,194.497 346.215,193.051 346.215 C 191.640 346.215,190.374 346.036,190.239 345.817 C 190.104 345.598,189.129 345.418,188.073 345.418 C 186.853 345.418,185.973 345.201,185.657 344.821 C 185.311 344.404,184.393 344.223,182.621 344.223 C 181.192 344.223,180.080 344.049,180.080 343.825 C 180.080 343.606,179.104 343.426,177.912 343.426 C 176.720 343.426,175.633 343.247,175.498 343.028 C 175.363 342.809,174.209 342.629,172.934 342.629 C 171.359 342.629,170.456 342.438,170.120 342.032 C 169.791 341.636,168.899 341.434,167.481 341.434 C 166.303 341.434,165.339 341.255,165.339 341.036 C 165.339 340.811,164.218 340.637,162.773 340.637 C 161.361 340.637,160.096 340.458,159.960 340.239 C 159.825 340.020,158.850 339.841,157.794 339.841 C 156.574 339.841,155.694 339.623,155.378 339.243 C 155.033 338.827,154.117 338.645,152.365 338.645 C 150.981 338.645,149.737 338.466,149.602 338.247 C 149.466 338.028,148.480 337.849,147.410 337.849 C 146.341 337.849,145.355 337.669,145.219 337.450 C 145.084 337.231,143.829 337.052,142.430 337.052 C 141.032 337.052,139.777 336.873,139.641 336.653 C 139.506 336.434,138.352 336.255,137.077 336.255 C 135.503 336.255,134.600 336.063,134.263 335.657 C 133.935 335.262,133.043 335.060,131.625 335.060 C 130.446 335.060,129.482 334.880,129.482 334.661 C 129.482 334.437,128.361 334.263,126.916 334.263 C 125.505 334.263,124.239 334.084,124.104 333.865 C 123.968 333.645,122.993 333.466,121.938 333.466 C 120.717 333.466,119.837 333.248,119.522 332.869 C 119.176 332.452,118.258 332.271,116.485 332.271 C 115.057 332.271,113.944 332.096,113.944 331.873 C 113.944 331.653,112.969 331.474,111.777 331.474 C 110.584 331.474,109.498 331.295,109.363 331.076 C 109.227 330.857,107.956 330.677,106.538 330.677 C 104.613 330.677,103.901 330.526,103.730 330.080 C 103.565 329.651,102.894 329.482,101.352 329.482 C 100.170 329.482,99.203 329.303,99.203 329.084 C 99.203 328.856,98.008 328.685,96.414 328.685 C 94.821 328.685,93.625 328.515,93.625 328.287 C 93.625 328.068,92.634 327.888,91.422 327.888 C 89.830 327.888,89.154 327.722,88.989 327.291 C 88.818 326.847,88.111 326.693,86.236 326.693 C 84.848 326.693,83.602 326.514,83.466 326.295 C 83.331 326.076,82.244 325.896,81.052 325.896 C 79.860 325.896,78.884 325.717,78.884 325.498 C 78.884 325.274,77.772 325.100,76.344 325.100 C 74.571 325.100,73.653 324.919,73.307 324.502 C 72.991 324.122,72.111 323.904,70.891 323.904 C 69.835 323.904,68.861 323.725,68.725 323.506 C 68.590 323.287,67.324 323.108,65.913 323.108 C 64.468 323.108,63.347 322.934,63.347 322.709 C 63.347 322.490,62.371 322.311,61.179 322.311 C 59.987 322.311,58.900 322.131,58.765 321.912 C 58.630 321.693,57.476 321.514,56.201 321.514 C 54.626 321.514,53.723 321.322,53.386 320.916 C 53.058 320.521,52.166 320.319,50.748 320.319 C 49.570 320.319,48.606 320.148,48.606 319.940 C 48.606 319.732,47.575 319.508,46.315 319.442 L 44.024 319.323 43.924 203.012 C 43.844 110.636,43.925 86.638,44.319 86.395 C 44.591 86.227,45.195 86.184,45.660 86.301 C 46.208 86.439,46.590 86.292,46.746 85.886 C 46.931 85.405,47.587 85.259,49.566 85.259 C 50.984 85.259,52.255 85.080,52.390 84.861 C 52.526 84.641,53.791 84.462,55.203 84.462 C 56.648 84.462,57.769 84.288,57.769 84.064 C 57.769 83.840,58.881 83.665,60.310 83.665 C 62.082 83.665,63.001 83.485,63.347 83.068 C 63.693 82.651,64.611 82.470,66.383 82.470 C 67.812 82.470,68.924 82.296,68.924 82.072 C 68.924 81.847,70.045 81.673,71.490 81.673 C 72.902 81.673,74.167 81.494,74.303 81.275 C 74.438 81.056,75.627 80.876,76.944 80.876 C 78.542 80.876,79.539 80.678,79.937 80.279 C 80.333 79.883,81.326 79.681,82.873 79.681 C 84.160 79.681,85.323 79.502,85.458 79.283 C 85.594 79.064,86.859 78.884,88.271 78.884 C 89.716 78.884,90.837 78.710,90.837 78.486 C 90.837 78.262,91.949 78.088,93.378 78.088 C 95.150 78.088,96.068 77.907,96.414 77.490 C 96.760 77.073,97.679 76.892,99.451 76.892 C 100.879 76.892,101.992 76.718,101.992 76.494 C 101.992 76.270,103.113 76.096,104.558 76.096 C 105.970 76.096,107.235 75.916,107.371 75.697 C 107.506 75.478,108.761 75.299,110.159 75.299 C 111.558 75.299,112.813 75.120,112.948 74.900 C 113.084 74.681,114.330 74.502,115.718 74.502 C 117.594 74.502,118.300 74.349,118.471 73.904 C 118.642 73.458,119.354 73.307,121.279 73.307 C 122.697 73.307,123.968 73.127,124.104 72.908 C 124.239 72.689,125.505 72.510,126.916 72.510 C 128.361 72.510,129.482 72.336,129.482 72.112 C 129.482 71.880,130.796 71.713,132.627 71.713 C 135.054 71.713,135.824 71.577,136.001 71.116 C 136.172 70.669,136.887 70.518,138.832 70.518 C 140.301 70.518,141.434 70.344,141.434 70.120 C 141.434 69.892,142.629 69.721,144.223 69.721 C 145.817 69.721,147.012 69.550,147.012 69.323 C 147.012 69.099,148.125 68.924,149.553 68.924 C 151.325 68.924,152.244 68.744,152.590 68.327 C 152.927 67.921,153.829 67.729,155.404 67.729 C 156.679 67.729,157.833 67.550,157.968 67.331 C 158.104 67.112,159.359 66.932,160.757 66.932 C 162.155 66.932,163.410 66.753,163.546 66.534 C 163.681 66.315,164.870 66.135,166.187 66.135 C 167.785 66.135,168.782 65.937,169.180 65.538 C 169.576 65.142,170.569 64.940,172.116 64.940 C 173.403 64.940,174.566 64.761,174.701 64.542 C 174.837 64.323,176.102 64.143,177.514 64.143 C 178.959 64.143,180.080 63.969,180.080 63.745 C 180.080 63.521,181.192 63.347,182.621 63.347 C 184.393 63.347,185.311 63.166,185.657 62.749 C 186.003 62.332,186.922 62.151,188.694 62.151 C 190.123 62.151,191.235 61.977,191.235 61.753 C 191.235 61.529,192.356 61.355,193.801 61.355 C 195.213 61.355,196.478 61.175,196.614 60.956 C 196.749 60.737,198.015 60.558,199.426 60.558 C 200.871 60.558,201.992 60.384,201.992 60.159 C 201.992 59.932,203.173 59.761,204.738 59.761 C 206.812 59.761,207.541 59.615,207.714 59.163 C 207.885 58.717,208.600 58.566,210.545 58.566 C 212.014 58.566,213.147 58.392,213.147 58.167 C 213.147 57.940,214.343 57.769,215.936 57.769 C 217.530 57.769,218.725 57.598,218.725 57.371 C 218.725 57.147,219.838 56.972,221.266 56.972 C 223.070 56.972,223.955 56.794,224.317 56.357 C 226.205 54.082,226.088 44.894,226.196 203.890 M357.409 85.932 C 359.323 86.883,359.761 87.420,359.761 88.816 C 359.761 89.489,359.940 90.040,360.159 90.040 C 360.864 90.040,360.694 247.331,359.989 248.036 C 359.516 248.509,356.919 248.606,344.650 248.606 L 329.880 248.606 329.880 187.849 C 329.880 147.610,329.746 127.092,329.482 127.092 C 329.263 127.092,329.084 126.823,329.084 126.494 C 329.084 126.165,329.299 125.896,329.562 125.896 C 329.934 125.896,329.934 125.790,329.562 125.418 C 329.299 125.155,329.084 124.637,329.084 124.266 C 329.084 123.895,328.815 123.488,328.486 123.362 C 328.157 123.236,327.888 122.644,327.888 122.046 C 327.888 120.837,326.124 118.725,325.113 118.725 C 324.764 118.725,324.220 118.367,323.904 117.928 C 323.589 117.490,323.024 117.131,322.650 117.131 C 322.276 117.131,321.618 116.683,321.187 116.135 C 320.756 115.588,320.150 115.139,319.842 115.139 C 319.533 115.139,318.672 114.512,317.928 113.745 C 317.185 112.978,316.293 112.351,315.946 112.351 C 315.599 112.351,315.057 111.992,314.741 111.554 C 314.425 111.116,313.873 110.757,313.514 110.757 C 313.154 110.757,312.524 110.309,312.113 109.761 C 311.701 109.213,311.080 108.765,310.732 108.765 C 310.384 108.765,309.678 108.317,309.163 107.769 C 308.649 107.221,308.018 106.773,307.761 106.773 C 307.505 106.773,306.970 106.414,306.574 105.976 C 306.177 105.538,305.603 105.179,305.298 105.179 C 304.993 105.179,304.327 104.731,303.820 104.183 C 303.312 103.635,302.622 103.187,302.286 103.187 C 301.951 103.187,301.125 102.560,300.452 101.793 C 299.778 101.026,298.981 100.398,298.679 100.398 C 298.378 100.398,297.807 100.040,297.410 99.602 C 297.014 99.163,296.384 98.805,296.010 98.805 C 295.636 98.805,294.994 98.357,294.583 97.809 C 294.171 97.261,293.532 96.813,293.161 96.813 C 292.791 96.813,292.136 96.365,291.705 95.817 C 291.274 95.269,290.661 94.821,290.343 94.821 C 290.025 94.821,289.440 94.462,289.044 94.024 C 288.647 93.586,288.073 93.227,287.768 93.227 C 287.463 93.227,286.798 92.779,286.290 92.231 C 285.782 91.683,285.137 91.235,284.855 91.235 C 284.574 91.235,283.734 90.608,282.989 89.841 C 282.244 89.074,281.385 88.446,281.080 88.446 C 280.233 88.446,280.018 87.798,280.682 87.247 C 281.008 86.977,281.275 86.418,281.275 86.007 C 281.275 84.902,355.189 84.830,357.409 85.932 M315.959 130.378 C 316.370 130.872,316.713 131.499,316.720 131.773 C 316.727 132.047,316.957 132.276,317.231 132.282 C 317.505 132.289,318.670 133.177,319.819 134.257 L 321.909 136.220 321.914 225.361 L 321.919 314.501 320.441 316.015 L 318.962 317.530 277.341 317.530 C 239.171 317.530,235.660 317.475,234.992 316.871 C 234.328 316.270,234.263 315.434,234.263 307.508 L 234.263 298.805 267.729 298.805 L 301.195 298.805 301.195 290.839 L 301.195 282.873 267.829 282.771 L 234.462 282.669 234.355 274.203 L 234.247 265.737 267.721 265.737 L 301.195 265.737 301.195 257.572 L 301.195 249.407 268.227 249.305 L 235.259 249.203 235.259 241.036 L 235.259 232.869 268.227 232.767 L 301.195 232.665 301.195 225.498 L 301.195 218.331 268.227 218.229 L 235.259 218.127 235.259 208.964 L 235.259 199.801 268.227 199.699 L 301.195 199.597 301.195 174.898 L 301.195 150.199 267.729 150.199 L 234.263 150.199 234.263 142.947 L 234.263 135.695 235.536 134.382 C 236.237 133.659,236.990 133.068,237.211 133.068 C 237.431 133.068,238.188 132.509,238.893 131.826 C 241.371 129.424,238.961 129.563,278.621 129.521 L 315.211 129.482 315.959 130.378 M108.765 203.386 L 108.765 256.574 118.123 256.574 L 127.482 256.574 127.586 238.745 L 127.689 220.916 135.715 220.809 C 142.218 220.721,143.833 220.589,144.230 220.111 C 144.499 219.787,145.235 219.522,145.866 219.522 C 146.496 219.522,147.012 219.343,147.012 219.124 C 147.012 218.904,147.360 218.725,147.785 218.725 C 148.211 218.725,148.669 218.546,148.805 218.327 C 148.940 218.108,149.736 217.928,150.572 217.928 C 151.439 217.928,152.307 217.671,152.590 217.331 C 152.862 217.002,153.312 216.733,153.588 216.733 C 153.864 216.733,154.184 216.375,154.299 215.936 C 154.423 215.460,154.842 215.139,155.341 215.139 C 155.886 215.139,156.175 214.885,156.175 214.404 C 156.175 213.606,157.350 212.351,158.097 212.351 C 159.084 212.351,163.347 207.482,163.347 206.355 C 163.347 205.753,163.614 205.162,163.944 205.035 C 164.273 204.909,164.542 204.442,164.542 203.997 C 164.542 203.551,164.721 203.187,164.940 203.187 C 165.159 203.187,165.339 202.865,165.339 202.470 C 165.339 202.076,165.504 201.583,165.706 201.375 C 165.909 201.166,166.133 200.458,166.204 199.801 C 166.301 198.914,166.566 198.573,167.231 198.478 C 167.923 198.380,168.127 198.090,168.127 197.207 C 168.127 196.578,168.307 195.952,168.526 195.817 C 168.772 195.664,168.924 192.161,168.924 186.630 C 168.924 180.935,168.780 177.689,168.526 177.689 C 168.307 177.689,168.127 176.780,168.127 175.669 C 168.127 174.404,167.904 173.425,167.530 173.051 C 167.134 172.655,166.932 171.662,166.932 170.115 C 166.932 168.828,166.753 167.665,166.534 167.530 C 166.315 167.394,166.135 166.874,166.135 166.372 C 166.135 165.216,165.183 163.291,164.146 162.353 C 163.707 161.955,163.347 161.389,163.347 161.096 C 163.347 160.382,156.709 153.785,155.990 153.785 C 155.680 153.785,155.315 153.606,155.179 153.386 C 155.044 153.167,154.406 152.988,153.761 152.988 C 153.117 152.988,152.590 152.809,152.590 152.590 C 152.590 152.371,152.083 152.191,151.464 152.191 C 150.778 152.191,149.972 151.802,149.402 151.195 L 148.467 150.199 128.616 150.199 L 108.765 150.199 108.765 203.386 M142.593 172.211 C 143.699 173.362,144.608 174.574,144.613 174.905 C 144.618 175.237,145.070 175.845,145.618 176.256 C 146.165 176.667,146.614 177.337,146.614 177.745 C 146.614 178.153,146.793 178.486,147.012 178.486 C 147.231 178.486,147.410 179.293,147.410 180.279 C 147.410 181.265,147.590 182.072,147.809 182.072 C 148.043 182.072,148.207 183.466,148.207 185.458 C 148.207 187.450,148.043 188.845,147.809 188.845 C 147.576 188.845,147.410 190.173,147.410 192.032 C 147.410 194.801,147.319 195.219,146.713 195.220 C 146.330 195.221,144.908 196.296,143.553 197.610 C 142.198 198.925,140.809 200.000,140.465 200.000 C 140.122 200.000,139.841 200.184,139.841 200.409 C 139.841 200.675,137.724 200.779,133.765 200.708 L 127.689 200.598 127.585 185.858 C 127.527 177.751,127.566 170.894,127.672 170.619 C 127.814 170.247,129.492 170.120,134.222 170.120 L 140.581 170.120 142.593 172.211 " stroke="none" fill="#fc0c04" fill-rule="evenodd"></path><path id="path2" d="M281.673 86.056 C 281.673 86.319,294.422 86.454,319.124 86.454 C 343.825 86.454,356.574 86.319,356.574 86.056 C 356.574 85.793,343.825 85.657,319.124 85.657 C 294.422 85.657,281.673 85.793,281.673 86.056 M44.223 202.988 C 44.223 279.753,44.357 319.124,44.620 319.124 C 44.882 319.124,45.016 279.753,45.016 202.988 C 45.016 126.231,44.881 86.853,44.619 86.853 C 44.358 86.853,44.223 126.231,44.223 202.988 M359.761 168.384 C 359.567 244.523,359.542 246.551,358.803 247.369 C 357.945 248.316,358.666 248.562,359.591 247.637 C 360.083 247.146,360.147 236.239,360.061 168.653 L 359.960 90.239 359.761 168.384 M242.032 130.279 C 241.868 130.543,254.187 130.677,278.685 130.677 C 303.184 130.677,315.502 130.543,315.339 130.279 C 315.177 130.018,302.527 129.880,278.685 129.880 C 254.844 129.880,242.193 130.018,242.032 130.279 M320.722 225.347 C 320.731 291.638,320.617 314.580,320.278 314.989 C 320.028 315.291,319.959 315.538,320.126 315.538 C 321.500 315.538,321.488 316.320,321.501 225.199 C 321.510 165.555,321.381 136.255,321.111 136.255 C 320.842 136.255,320.713 165.603,320.722 225.347 M167.729 171.490 C 167.729 172.244,167.867 172.946,168.035 173.051 C 168.204 173.155,168.274 172.538,168.193 171.680 C 168.009 169.753,167.729 169.639,167.729 171.490 M139.044 170.916 C 139.823 171.420,140.637 171.420,140.637 170.916 C 140.637 170.697,140.144 170.521,139.542 170.524 C 138.688 170.529,138.578 170.615,139.044 170.916 M168.566 175.973 C 168.544 176.672,168.705 177.355,168.924 177.490 C 169.382 177.773,169.382 177.128,168.924 175.697 C 168.620 174.746,168.604 174.758,168.566 175.973 M146.506 192.729 C 146.396 193.113,146.176 193.740,146.019 194.124 C 145.815 194.617,145.918 194.821,146.372 194.821 C 146.838 194.821,147.012 194.441,147.012 193.426 C 147.012 191.904,146.819 191.639,146.506 192.729 " stroke="none" fill="#b4dcd4" fill-rule="evenodd"></path><path id="path3" d="M224.317 56.357 C 223.955 56.794,223.070 56.972,221.266 56.972 C 219.838 56.972,218.725 57.147,218.725 57.371 C 218.725 57.598,217.530 57.769,215.936 57.769 C 214.402 57.769,213.147 57.940,213.147 58.149 C 213.147 58.358,211.952 58.582,210.490 58.647 C 208.732 58.725,207.798 58.937,207.731 59.273 C 207.675 59.552,207.721 59.597,207.832 59.373 C 207.943 59.148,209.174 58.964,210.567 58.964 C 211.961 58.964,213.211 58.785,213.347 58.566 C 213.482 58.347,214.737 58.167,216.135 58.167 C 217.534 58.167,218.789 57.988,218.924 57.769 C 219.060 57.550,220.214 57.371,221.489 57.371 C 223.063 57.371,223.966 57.179,224.303 56.773 C 225.966 54.769,225.896 48.366,225.896 203.785 L 225.896 351.394 223.586 351.394 C 222.284 351.394,221.044 351.177,220.747 350.896 C 220.321 350.494,220.254 350.514,220.402 350.996 C 220.541 351.452,221.237 351.594,223.340 351.594 L 226.096 351.594 226.096 203.790 C 226.096 44.886,226.207 54.081,224.317 56.357 M201.992 60.159 C 201.992 60.384,200.871 60.558,199.426 60.558 C 198.015 60.558,196.749 60.737,196.614 60.956 C 196.478 61.175,195.213 61.355,193.801 61.355 C 192.356 61.355,191.235 61.529,191.235 61.753 C 191.235 61.977,190.123 62.151,188.694 62.151 C 186.922 62.151,186.003 62.332,185.657 62.749 C 185.311 63.166,184.393 63.347,182.621 63.347 C 181.192 63.347,180.080 63.521,180.080 63.745 C 180.080 63.969,178.959 64.143,177.514 64.143 C 176.102 64.143,174.837 64.323,174.701 64.542 C 174.566 64.761,173.403 64.940,172.116 64.940 C 170.569 64.940,169.576 65.142,169.180 65.538 C 168.782 65.937,167.785 66.135,166.187 66.135 C 164.870 66.135,163.681 66.315,163.546 66.534 C 163.410 66.753,162.155 66.932,160.757 66.932 C 159.359 66.932,158.104 67.112,157.968 67.331 C 157.833 67.550,156.679 67.729,155.404 67.729 C 153.829 67.729,152.927 67.921,152.590 68.327 C 152.244 68.744,151.325 68.924,149.553 68.924 C 148.125 68.924,147.012 69.099,147.012 69.323 C 147.012 69.550,145.817 69.721,144.223 69.721 C 142.689 69.721,141.434 69.892,141.434 70.101 C 141.434 70.310,140.238 70.535,138.777 70.599 C 137.019 70.677,136.085 70.889,136.018 71.225 C 135.962 71.504,136.007 71.549,136.119 71.325 C 136.230 71.100,137.461 70.916,138.854 70.916 C 140.247 70.916,141.498 70.737,141.633 70.518 C 141.769 70.299,143.024 70.120,144.422 70.120 C 145.821 70.120,147.076 69.940,147.211 69.721 C 147.347 69.502,148.501 69.323,149.776 69.323 C 151.350 69.323,152.253 69.131,152.590 68.725 C 152.936 68.308,153.854 68.127,155.626 68.127 C 157.055 68.127,158.167 67.953,158.167 67.729 C 158.167 67.505,159.288 67.331,160.733 67.331 C 162.145 67.331,163.410 67.151,163.546 66.932 C 163.681 66.713,164.925 66.534,166.309 66.534 C 168.061 66.534,168.978 66.352,169.323 65.936 C 169.669 65.519,170.587 65.339,172.360 65.339 C 173.788 65.339,174.900 65.164,174.900 64.940 C 174.900 64.716,176.021 64.542,177.467 64.542 C 178.878 64.542,180.143 64.363,180.279 64.143 C 180.414 63.924,181.568 63.745,182.843 63.745 C 184.418 63.745,185.320 63.553,185.657 63.147 C 186.002 62.732,186.919 62.550,188.671 62.550 C 190.055 62.550,191.299 62.371,191.434 62.151 C 191.570 61.932,192.835 61.753,194.247 61.753 C 195.692 61.753,196.813 61.579,196.813 61.355 C 196.813 61.131,197.925 60.956,199.354 60.956 C 201.126 60.956,202.044 60.775,202.390 60.359 C 202.733 59.946,202.748 59.761,202.439 59.761 C 202.193 59.761,201.992 59.940,201.992 60.159 M129.482 72.112 C 129.482 72.335,128.380 72.510,126.972 72.510 C 125.592 72.510,124.292 72.680,124.084 72.887 C 123.875 73.095,122.554 73.319,121.147 73.385 C 119.472 73.464,118.554 73.681,118.488 74.014 C 118.432 74.293,118.478 74.338,118.589 74.114 C 118.700 73.889,119.931 73.705,121.324 73.705 C 122.718 73.705,123.968 73.526,124.104 73.307 C 124.239 73.088,125.483 72.908,126.867 72.908 C 128.619 72.908,129.535 72.727,129.880 72.311 C 130.223 71.898,130.238 71.713,129.929 71.713 C 129.683 71.713,129.482 71.892,129.482 72.112 M112.948 74.900 C 112.813 75.120,111.558 75.299,110.159 75.299 C 108.761 75.299,107.506 75.478,107.371 75.697 C 107.235 75.916,105.970 76.096,104.558 76.096 C 103.113 76.096,101.992 76.270,101.992 76.494 C 101.992 76.718,100.879 76.892,99.451 76.892 C 97.679 76.892,96.760 77.073,96.414 77.490 C 96.068 77.907,95.150 78.088,93.378 78.088 C 91.949 78.088,90.837 78.262,90.837 78.486 C 90.837 78.710,89.716 78.884,88.271 78.884 C 86.859 78.884,85.594 79.064,85.458 79.283 C 85.323 79.502,84.160 79.681,82.873 79.681 C 81.326 79.681,80.333 79.883,79.937 80.279 C 79.539 80.678,78.542 80.876,76.944 80.876 C 75.627 80.876,74.438 81.056,74.303 81.275 C 74.167 81.494,72.902 81.673,71.490 81.673 C 70.045 81.673,68.924 81.847,68.924 82.072 C 68.924 82.296,67.812 82.470,66.383 82.470 C 64.430 82.470,63.721 82.631,63.315 83.167 C 62.866 83.760,62.871 83.790,63.346 83.367 C 63.666 83.081,64.965 82.869,66.391 82.869 C 67.758 82.869,68.988 82.689,69.124 82.470 C 69.259 82.251,70.524 82.072,71.936 82.072 C 73.381 82.072,74.502 81.898,74.502 81.673 C 74.502 81.449,75.615 81.275,77.043 81.275 C 78.815 81.275,79.734 81.094,80.080 80.677 C 80.426 80.260,81.344 80.080,83.117 80.080 C 84.545 80.080,85.657 79.905,85.657 79.681 C 85.657 79.457,86.778 79.283,88.223 79.283 C 89.635 79.283,90.900 79.104,91.036 78.884 C 91.171 78.665,92.442 78.486,93.861 78.486 C 95.785 78.486,96.498 78.334,96.669 77.888 C 96.839 77.444,97.546 77.291,99.422 77.291 C 100.809 77.291,102.056 77.112,102.191 76.892 C 102.327 76.673,103.592 76.494,105.004 76.494 C 106.449 76.494,107.570 76.320,107.570 76.096 C 107.570 75.872,108.682 75.697,110.111 75.697 C 111.883 75.697,112.801 75.516,113.147 75.100 C 113.420 74.771,113.542 74.502,113.419 74.502 C 113.295 74.502,113.084 74.681,112.948 74.900 M57.769 84.064 C 57.769 84.287,56.667 84.462,55.259 84.462 C 53.878 84.462,52.579 84.632,52.371 84.840 C 52.162 85.047,50.841 85.271,49.434 85.338 C 47.759 85.417,46.841 85.633,46.775 85.966 C 46.719 86.246,46.764 86.290,46.876 86.066 C 46.987 85.841,48.218 85.657,49.611 85.657 C 51.004 85.657,52.255 85.478,52.390 85.259 C 52.526 85.040,53.769 84.861,55.154 84.861 C 56.906 84.861,57.822 84.679,58.167 84.263 C 58.510 83.850,58.525 83.665,58.216 83.665 C 57.970 83.665,57.769 83.845,57.769 84.064 M281.290 86.216 C 281.089 86.743,280.732 87.293,280.496 87.439 C 279.954 87.774,280.344 88.446,281.080 88.446 C 281.385 88.446,282.244 89.074,282.989 89.841 C 283.734 90.608,284.574 91.235,284.855 91.235 C 285.137 91.235,285.782 91.683,286.290 92.231 C 286.798 92.779,287.434 93.227,287.704 93.227 C 287.975 93.227,288.641 93.630,289.185 94.124 L 290.175 95.020 289.410 93.937 C 288.990 93.341,288.363 92.848,288.018 92.841 C 287.672 92.834,286.969 92.380,286.454 91.833 C 285.940 91.285,285.299 90.837,285.030 90.837 C 284.762 90.837,283.914 90.209,283.147 89.442 C 282.380 88.675,281.421 88.042,281.016 88.036 C 280.325 88.024,280.322 87.998,280.976 87.617 C 281.360 87.394,281.673 86.862,281.673 86.434 C 281.673 85.602,356.312 85.163,356.640 85.994 C 356.713 86.179,357.311 86.584,357.968 86.893 C 358.838 87.303,359.199 87.780,359.294 88.648 C 359.365 89.304,359.589 90.011,359.792 90.219 C 360.467 90.914,360.268 246.961,359.590 247.638 C 359.118 248.110,356.574 248.207,344.650 248.207 L 330.279 248.207 330.279 187.673 C 330.279 145.878,330.150 127.059,329.861 126.880 C 329.580 126.707,329.613 126.417,329.961 125.995 C 330.370 125.499,330.374 125.333,329.980 125.201 C 329.706 125.109,329.482 124.712,329.482 124.318 C 329.482 123.925,329.213 123.380,328.884 123.108 C 328.556 122.835,328.281 122.230,328.274 121.764 C 328.260 120.834,327.717 120.032,326.494 119.139 C 326.040 118.807,326.168 119.073,326.793 119.758 C 327.426 120.453,327.888 121.418,327.888 122.046 C 327.888 122.644,328.157 123.236,328.486 123.362 C 328.815 123.488,329.084 123.920,329.084 124.322 C 329.084 124.724,329.272 125.169,329.501 125.311 C 329.784 125.486,329.761 125.760,329.427 126.161 C 329.051 126.614,329.047 126.822,329.407 127.045 C 329.765 127.267,329.902 141.809,329.979 187.871 L 330.080 248.406 344.585 248.511 C 357.659 248.605,359.162 248.550,359.824 247.951 C 360.675 247.181,361.009 90.040,360.159 90.040 C 359.940 90.040,359.761 89.530,359.761 88.906 C 359.761 87.804,358.729 86.454,357.886 86.454 C 357.656 86.454,357.245 86.185,356.972 85.857 C 356.538 85.333,351.833 85.259,319.065 85.259 L 281.654 85.259 281.290 86.216 M44.009 86.952 C 43.905 87.226,43.866 139.622,43.922 203.386 L 44.024 319.323 46.315 319.442 C 47.575 319.508,48.606 319.732,48.606 319.940 C 48.606 320.148,49.570 320.319,50.748 320.319 C 52.166 320.319,53.058 320.521,53.386 320.916 C 53.723 321.322,54.626 321.514,56.201 321.514 C 57.476 321.514,58.630 321.693,58.765 321.912 C 58.900 322.131,59.987 322.311,61.179 322.311 C 62.371 322.311,63.347 322.490,63.347 322.709 C 63.347 322.933,64.449 323.108,65.857 323.108 C 67.301 323.108,68.604 323.319,68.925 323.606 C 69.400 324.029,69.405 324.000,68.956 323.406 C 68.560 322.883,67.851 322.709,66.110 322.709 C 64.835 322.709,63.681 322.530,63.546 322.311 C 63.410 322.092,62.324 321.912,61.132 321.912 C 59.940 321.912,58.964 321.733,58.964 321.514 C 58.964 321.290,57.852 321.116,56.423 321.116 C 54.651 321.116,53.732 320.935,53.386 320.518 C 53.071 320.138,52.191 319.920,50.971 319.920 C 49.915 319.920,48.940 319.741,48.805 319.522 C 48.669 319.303,47.583 319.124,46.391 319.124 L 44.223 319.124 44.223 203.017 C 44.223 92.775,44.258 86.902,44.920 86.729 C 45.574 86.558,45.573 86.544,44.908 86.500 C 44.517 86.475,44.113 86.678,44.009 86.952 M291.235 95.096 C 291.235 95.667,292.590 96.813,293.264 96.813 C 293.578 96.813,294.171 97.261,294.583 97.809 C 294.994 98.357,295.636 98.805,296.010 98.805 C 296.384 98.805,297.014 99.163,297.410 99.602 C 297.807 100.040,298.417 100.387,298.767 100.373 C 299.225 100.355,299.176 100.256,298.592 100.019 C 298.146 99.839,297.541 99.402,297.248 99.049 C 296.955 98.695,296.499 98.406,296.236 98.406 C 295.972 98.406,295.335 97.958,294.821 97.410 C 294.306 96.863,293.624 96.414,293.304 96.414 C 292.984 96.414,292.388 96.028,291.979 95.557 C 291.570 95.085,291.235 94.878,291.235 95.096 M299.602 100.633 C 299.602 101.195,301.722 103.187,302.320 103.187 C 302.637 103.187,303.312 103.635,303.820 104.183 C 304.327 104.731,304.964 105.179,305.234 105.179 C 305.504 105.179,306.185 105.583,306.747 106.076 L 307.769 106.972 306.803 105.876 C 306.272 105.274,305.631 104.781,305.378 104.781 C 305.126 104.781,304.499 104.333,303.984 103.785 C 303.469 103.237,302.793 102.789,302.481 102.789 C 302.169 102.789,301.393 102.232,300.757 101.551 C 300.122 100.871,299.602 100.458,299.602 100.633 M309.163 107.769 C 309.678 108.317,310.384 108.765,310.732 108.765 C 311.080 108.765,311.701 109.213,312.113 109.761 C 312.524 110.309,313.154 110.757,313.514 110.757 C 313.873 110.757,314.425 111.116,314.741 111.554 C 315.057 111.992,315.599 112.351,315.946 112.351 C 316.293 112.351,317.185 112.978,317.928 113.745 C 318.672 114.512,319.533 115.139,319.842 115.139 C 320.150 115.139,320.756 115.588,321.187 116.135 C 321.618 116.683,322.276 117.131,322.650 117.131 C 323.024 117.131,323.589 117.490,323.904 117.928 C 324.220 118.367,324.650 118.725,324.859 118.725 C 325.068 118.725,324.817 118.277,324.303 117.729 C 323.788 117.181,323.082 116.733,322.734 116.733 C 322.386 116.733,321.765 116.285,321.353 115.737 C 320.942 115.189,320.362 114.741,320.065 114.741 C 319.767 114.741,318.859 114.114,318.045 113.347 C 317.232 112.580,316.363 111.952,316.114 111.952 C 315.865 111.952,315.337 111.594,314.940 111.155 C 314.544 110.717,313.959 110.359,313.641 110.359 C 313.323 110.359,312.710 109.910,312.279 109.363 C 311.849 108.815,311.190 108.367,310.816 108.367 C 310.442 108.367,309.878 108.008,309.562 107.570 C 309.246 107.131,308.816 106.773,308.608 106.773 C 308.399 106.773,308.649 107.221,309.163 107.769 M241.833 129.880 C 241.833 130.100,241.509 130.279,241.114 130.279 C 240.719 130.279,239.787 130.906,239.044 131.673 C 238.300 132.440,237.494 133.068,237.251 133.068 C 237.008 133.068,236.232 133.663,235.527 134.391 L 234.244 135.715 234.353 142.857 L 234.462 150.000 267.928 150.199 L 301.394 150.398 301.394 174.962 C 301.394 188.472,301.526 199.319,301.687 199.066 C 302.037 198.515,302.098 151.338,301.750 150.431 C 301.532 149.863,298.195 149.801,268.085 149.801 L 234.661 149.801 234.661 142.825 L 234.661 135.850 235.723 134.658 C 236.307 134.002,237.036 133.466,237.344 133.466 C 237.651 133.466,238.494 132.839,239.217 132.072 C 239.941 131.305,240.814 130.677,241.159 130.677 C 241.504 130.677,241.896 130.498,242.032 130.279 C 242.193 130.018,254.831 129.880,278.647 129.880 C 318.357 129.880,316.335 129.767,316.335 132.003 C 316.335 132.384,316.648 132.669,317.065 132.669 C 317.467 132.669,318.633 133.553,319.655 134.633 L 321.514 136.596 321.514 225.391 L 321.514 314.187 320.165 315.659 L 318.817 317.131 277.308 317.131 C 241.865 317.131,235.716 317.048,235.231 316.562 C 234.773 316.105,234.661 314.343,234.661 307.598 L 234.661 299.203 268.120 299.203 L 301.578 299.203 301.799 298.307 C 301.920 297.814,301.968 294.094,301.906 290.040 L 301.793 282.669 268.227 282.567 L 234.661 282.466 234.661 274.301 L 234.661 266.135 268.085 266.135 C 298.195 266.135,301.532 266.073,301.750 265.505 C 302.096 264.605,302.038 250.491,301.687 249.937 C 301.526 249.684,301.394 253.090,301.394 257.507 L 301.394 265.538 267.928 265.737 L 234.462 265.936 234.462 274.303 L 234.462 282.669 267.928 282.869 L 301.394 283.068 301.394 290.837 L 301.394 298.606 267.928 298.805 L 234.462 299.004 234.354 307.529 C 234.260 315.042,234.326 316.142,234.914 316.792 C 235.556 317.501,237.205 317.530,277.289 317.530 L 318.996 317.530 320.454 315.954 L 321.912 314.377 321.912 225.365 L 321.912 136.353 319.821 134.313 C 318.670 133.191,317.505 132.273,317.231 132.272 C 316.957 132.271,316.733 132.033,316.733 131.743 C 316.733 131.452,316.318 130.825,315.811 130.348 L 314.889 129.482 278.361 129.482 C 254.274 129.482,241.833 129.618,241.833 129.880 M108.550 150.299 C 108.446 150.573,108.407 174.641,108.463 203.785 L 108.566 256.773 118.127 256.773 L 127.689 256.773 127.793 238.944 L 127.897 221.116 135.832 221.116 C 142.355 221.116,143.874 221.009,144.365 220.518 C 144.694 220.189,145.413 219.920,145.964 219.920 C 146.514 219.920,147.076 219.741,147.211 219.522 C 147.347 219.303,147.805 219.124,148.231 219.124 C 148.656 219.124,149.004 218.944,149.004 218.725 C 149.004 218.506,149.699 218.327,150.549 218.327 C 151.436 218.327,152.305 218.072,152.590 217.729 C 152.862 217.400,153.422 217.131,153.834 217.131 C 154.307 217.131,154.582 216.849,154.582 216.362 C 154.582 215.869,154.902 215.548,155.474 215.466 C 155.976 215.394,156.430 215.003,156.513 214.570 C 156.689 213.646,157.525 212.749,158.209 212.749 C 159.134 212.749,163.745 207.699,163.745 206.686 C 163.745 206.164,163.969 205.511,164.243 205.235 C 164.642 204.833,164.603 204.786,164.044 204.999 C 163.614 205.163,163.347 205.683,163.347 206.355 C 163.347 207.526,159.067 212.351,158.028 212.351 C 157.308 212.351,156.175 213.649,156.175 214.474 C 156.175 214.884,155.855 215.139,155.341 215.139 C 154.842 215.139,154.423 215.460,154.299 215.936 C 154.184 216.375,153.864 216.733,153.588 216.733 C 153.312 216.733,152.862 217.002,152.590 217.331 C 152.307 217.671,151.439 217.928,150.572 217.928 C 149.736 217.928,148.940 218.108,148.805 218.327 C 148.669 218.546,148.211 218.725,147.785 218.725 C 147.360 218.725,147.012 218.904,147.012 219.124 C 147.012 219.343,146.496 219.522,145.866 219.522 C 145.235 219.522,144.499 219.787,144.230 220.111 C 143.833 220.589,142.218 220.721,135.715 220.809 L 127.689 220.916 127.586 238.745 L 127.482 256.574 118.123 256.574 L 108.765 256.574 108.765 203.386 L 108.765 150.199 128.616 150.199 L 148.467 150.199 149.402 151.195 C 149.972 151.802,150.778 152.191,151.464 152.191 C 152.083 152.191,152.590 152.371,152.590 152.590 C 152.590 152.809,153.117 152.988,153.761 152.988 C 154.406 152.988,155.044 153.167,155.179 153.386 C 155.315 153.606,155.693 153.785,156.020 153.785 C 156.752 153.785,163.347 160.373,163.347 161.103 C 163.347 161.393,163.707 161.955,164.146 162.353 C 165.147 163.259,166.131 165.197,166.148 166.296 C 166.155 166.756,166.424 167.479,166.746 167.905 C 167.088 168.357,167.331 169.547,167.331 170.770 C 167.331 171.920,167.510 172.972,167.729 173.108 C 167.948 173.243,168.127 174.329,168.127 175.522 C 168.127 176.714,168.307 177.689,168.526 177.689 C 168.780 177.689,168.924 180.935,168.924 186.630 C 168.924 192.161,168.772 195.664,168.526 195.817 C 168.307 195.952,168.127 196.578,168.127 197.207 C 168.127 198.090,167.923 198.380,167.231 198.478 C 166.566 198.573,166.301 198.914,166.204 199.801 C 166.133 200.458,165.909 201.166,165.706 201.375 C 165.504 201.583,165.339 202.076,165.339 202.470 C 165.339 202.865,165.159 203.187,164.940 203.187 C 164.721 203.187,164.542 203.490,164.542 203.861 C 164.542 204.816,165.707 203.269,165.724 202.291 C 165.731 201.907,165.916 201.594,166.135 201.594 C 166.355 201.594,166.534 201.051,166.534 200.389 C 166.534 199.470,166.770 199.094,167.530 198.805 C 168.289 198.516,168.526 198.140,168.526 197.221 C 168.526 196.558,168.705 196.016,168.924 196.016 C 169.178 196.016,169.323 192.704,169.323 186.876 C 169.323 181.213,169.171 177.643,168.924 177.490 C 168.705 177.355,168.526 176.394,168.526 175.355 C 168.526 174.316,168.366 173.296,168.171 173.088 C 167.976 172.879,167.737 171.554,167.642 170.142 C 167.543 168.677,167.268 167.509,167.001 167.420 C 166.744 167.334,166.534 166.752,166.534 166.126 C 166.534 165.500,166.355 164.876,166.135 164.741 C 165.916 164.606,165.737 164.160,165.737 163.750 C 165.737 163.341,165.289 162.653,164.741 162.223 C 164.193 161.792,163.745 161.192,163.745 160.891 C 163.745 160.093,156.883 153.386,156.068 153.386 C 155.689 153.386,155.378 153.207,155.378 152.988 C 155.378 152.769,154.851 152.590,154.207 152.590 C 153.562 152.590,152.924 152.410,152.789 152.191 C 152.653 151.972,152.047 151.793,151.440 151.793 C 150.780 151.793,149.963 151.394,149.402 150.797 L 148.467 149.801 128.603 149.801 C 113.079 149.801,108.699 149.910,108.550 150.299 M127.672 170.619 C 127.566 170.894,127.527 177.751,127.585 185.858 L 127.689 200.598 133.765 200.708 C 137.442 200.774,139.841 200.667,139.841 200.436 C 139.841 200.227,140.230 199.998,140.706 199.928 C 141.182 199.858,141.616 199.572,141.672 199.293 C 141.727 199.013,141.682 198.969,141.570 199.193 C 141.459 199.418,141.035 199.602,140.628 199.602 C 140.221 199.602,139.777 199.781,139.641 200.000 C 139.496 200.236,137.048 200.398,133.642 200.398 L 127.888 200.398 127.888 185.458 L 127.888 170.518 134.057 170.518 L 140.226 170.518 142.224 172.382 C 143.324 173.407,144.244 174.617,144.269 175.071 C 144.311 175.809,144.336 175.818,144.507 175.151 C 144.639 174.637,144.043 173.742,142.582 172.263 L 140.465 170.120 134.164 170.120 C 129.481 170.120,127.814 170.248,127.672 170.619 M145.020 176.112 C 145.020 176.336,145.289 176.622,145.618 176.748 C 145.946 176.874,146.215 177.306,146.215 177.708 C 146.215 178.110,146.394 178.550,146.614 178.685 C 146.833 178.821,147.012 179.627,147.012 180.478 C 147.012 181.329,147.191 182.135,147.410 182.271 C 147.629 182.406,147.809 183.851,147.809 185.482 C 147.809 187.192,147.640 188.446,147.410 188.446 C 147.178 188.446,147.012 189.765,147.012 191.606 C 147.012 194.544,146.951 194.774,146.147 194.893 C 145.671 194.963,145.209 195.289,145.120 195.618 C 145.014 196.012,145.071 196.062,145.288 195.763 C 145.469 195.515,145.976 195.244,146.414 195.161 C 147.114 195.030,147.226 194.646,147.330 192.028 C 147.396 190.387,147.620 188.874,147.828 188.666 C 148.339 188.155,148.321 182.072,147.809 182.072 C 147.590 182.072,147.410 181.265,147.410 180.279 C 147.410 179.293,147.231 178.486,147.012 178.486 C 146.793 178.486,146.614 178.167,146.614 177.778 C 146.614 177.388,146.255 176.763,145.817 176.387 C 145.378 176.012,145.020 175.888,145.020 176.112 M143.327 197.218 C 141.791 198.728,141.953 199.105,143.511 197.649 C 144.216 196.990,144.709 196.382,144.607 196.296 C 144.505 196.211,143.929 196.625,143.327 197.218 M235.238 200.109 C 235.131 200.388,235.092 204.556,235.151 209.372 L 235.259 218.127 268.435 218.229 L 301.612 218.331 301.503 225.401 L 301.394 232.470 268.327 232.669 L 235.259 232.869 235.151 240.808 C 235.091 245.175,235.181 248.886,235.350 249.056 C 235.519 249.225,235.605 245.697,235.542 241.216 L 235.427 233.068 268.262 233.068 C 295.712 233.068,301.173 232.977,301.554 232.517 C 301.869 232.138,301.977 229.813,301.902 225.047 L 301.793 218.127 268.725 217.928 L 235.657 217.729 235.657 208.665 C 235.657 199.742,235.626 199.099,235.238 200.109 M73.307 324.502 C 73.653 324.919,74.571 325.100,76.344 325.100 C 77.772 325.100,78.884 325.274,78.884 325.498 C 78.884 325.717,79.835 325.896,80.996 325.896 C 82.157 325.896,83.359 326.121,83.666 326.394 C 84.141 326.818,84.146 326.788,83.697 326.195 C 83.323 325.701,82.611 325.498,81.250 325.498 C 80.194 325.498,79.219 325.319,79.084 325.100 C 78.948 324.880,77.683 324.701,76.271 324.701 C 74.826 324.701,73.705 324.527,73.705 324.303 C 73.705 324.084,73.504 323.904,73.258 323.904 C 72.949 323.904,72.964 324.089,73.307 324.502 M88.926 327.092 C 89.053 327.511,89.780 327.725,91.366 327.809 C 92.609 327.874,93.625 328.099,93.625 328.307 C 93.625 328.515,94.880 328.685,96.414 328.685 C 98.008 328.685,99.203 328.856,99.203 329.084 C 99.203 329.303,100.170 329.482,101.352 329.482 C 102.894 329.482,103.565 329.651,103.730 330.080 C 103.901 330.526,104.613 330.677,106.538 330.677 C 107.956 330.677,109.227 330.857,109.363 331.076 C 109.498 331.295,110.584 331.474,111.777 331.474 C 112.969 331.474,113.944 331.653,113.944 331.873 C 113.944 332.096,115.057 332.271,116.485 332.271 C 118.258 332.271,119.176 332.452,119.522 332.869 C 119.837 333.248,120.717 333.466,121.938 333.466 C 122.993 333.466,123.968 333.645,124.104 333.865 C 124.239 334.084,125.505 334.263,126.916 334.263 C 128.361 334.263,129.482 334.437,129.482 334.661 C 129.482 334.880,130.446 335.060,131.625 335.060 C 133.043 335.060,133.935 335.262,134.263 335.657 C 134.600 336.063,135.503 336.255,137.077 336.255 C 138.352 336.255,139.506 336.434,139.641 336.653 C 139.777 336.873,141.032 337.052,142.430 337.052 C 143.829 337.052,145.084 337.231,145.219 337.450 C 145.355 337.669,146.315 337.849,147.354 337.849 C 148.393 337.849,149.469 338.073,149.745 338.347 C 150.147 338.746,150.194 338.706,149.981 338.147 C 149.774 337.604,149.248 337.450,147.590 337.450 C 146.422 337.450,145.355 337.271,145.219 337.052 C 145.084 336.833,143.818 336.653,142.407 336.653 C 140.962 336.653,139.841 336.479,139.841 336.255 C 139.841 336.031,138.728 335.857,137.300 335.857 C 135.527 335.857,134.609 335.676,134.263 335.259 C 133.948 334.879,133.068 334.661,131.847 334.661 C 130.791 334.661,129.817 334.482,129.681 334.263 C 129.546 334.044,128.280 333.865,126.869 333.865 C 125.424 333.865,124.303 333.691,124.303 333.466 C 124.303 333.247,123.339 333.068,122.160 333.068 C 120.742 333.068,119.850 332.866,119.522 332.470 C 119.185 332.064,118.282 331.873,116.708 331.873 C 115.433 331.873,114.279 331.693,114.143 331.474 C 114.008 331.255,112.922 331.076,111.729 331.076 C 110.537 331.076,109.562 330.896,109.562 330.677 C 109.562 330.453,108.449 330.279,107.021 330.279 C 105.248 330.279,104.330 330.098,103.984 329.681 C 103.669 329.301,102.789 329.084,101.568 329.084 C 100.513 329.084,99.538 328.904,99.402 328.685 C 99.267 328.466,98.012 328.287,96.614 328.287 C 95.215 328.287,93.960 328.108,93.825 327.888 C 93.689 327.669,92.728 327.490,91.690 327.490 C 90.651 327.490,89.563 327.266,89.273 326.992 C 88.847 326.590,88.780 326.609,88.926 327.092 M155.347 339.143 C 155.721 339.638,156.432 339.841,157.794 339.841 C 158.850 339.841,159.825 340.020,159.960 340.239 C 160.096 340.458,161.361 340.637,162.773 340.637 C 164.218 340.637,165.339 340.811,165.339 341.036 C 165.339 341.255,166.303 341.434,167.481 341.434 C 168.899 341.434,169.791 341.636,170.120 342.032 C 170.456 342.438,171.359 342.629,172.934 342.629 C 174.209 342.629,175.363 342.809,175.498 343.028 C 175.633 343.247,176.720 343.426,177.912 343.426 C 179.104 343.426,180.080 343.606,180.080 343.825 C 180.080 344.049,181.192 344.223,182.621 344.223 C 184.393 344.223,185.311 344.404,185.657 344.821 C 185.973 345.201,186.853 345.418,188.073 345.418 C 189.129 345.418,190.104 345.598,190.239 345.817 C 190.374 346.036,191.640 346.215,193.051 346.215 C 194.497 346.215,195.618 346.389,195.618 346.614 C 195.618 346.833,196.582 347.012,197.760 347.012 C 199.178 347.012,200.070 347.214,200.398 347.610 C 200.744 348.026,201.663 348.207,203.435 348.207 C 204.864 348.207,205.976 348.382,205.976 348.606 C 205.976 348.825,206.962 349.004,208.167 349.004 C 209.373 349.004,210.359 349.183,210.359 349.402 C 210.359 349.630,211.543 349.801,213.114 349.801 C 214.630 349.801,215.961 349.985,216.072 350.209 C 216.184 350.434,216.229 350.389,216.174 350.110 C 216.107 349.777,215.189 349.560,213.514 349.481 C 212.107 349.415,210.786 349.190,210.578 348.983 C 210.370 348.775,209.349 348.606,208.310 348.606 C 207.272 348.606,206.311 348.426,206.175 348.207 C 206.040 347.988,204.796 347.809,203.412 347.809 C 201.660 347.809,200.744 347.627,200.398 347.211 C 200.083 346.831,199.203 346.614,197.983 346.614 C 196.927 346.614,195.952 346.434,195.817 346.215 C 195.681 345.996,194.416 345.817,193.004 345.817 C 191.559 345.817,190.438 345.643,190.438 345.418 C 190.438 345.199,189.474 345.020,188.296 345.020 C 186.877 345.020,185.986 344.818,185.657 344.422 C 185.320 344.016,184.418 343.825,182.843 343.825 C 181.568 343.825,180.414 343.645,180.279 343.426 C 180.143 343.207,179.057 343.028,177.865 343.028 C 176.673 343.028,175.697 342.849,175.697 342.629 C 175.697 342.406,174.585 342.231,173.156 342.231 C 171.384 342.231,170.466 342.050,170.120 341.633 C 169.804 341.254,168.924 341.036,167.704 341.036 C 166.648 341.036,165.673 340.857,165.538 340.637 C 165.402 340.418,164.147 340.239,162.749 340.239 C 161.351 340.239,160.096 340.060,159.960 339.841 C 159.825 339.622,158.864 339.442,157.825 339.442 C 156.786 339.442,155.685 339.218,155.378 338.944 C 154.903 338.521,154.898 338.550,155.347 339.143 " stroke="none" fill="#d88840" fill-rule="evenodd"></path><path id="path4" d="M301.382 174.701 C 301.382 188.068,301.433 193.478,301.494 186.724 C 301.555 179.971,301.555 169.034,301.494 162.422 C 301.432 155.809,301.382 161.335,301.382 174.701 M167.052 170.518 C 167.052 171.723,167.126 172.216,167.218 171.614 C 167.309 171.011,167.309 170.025,167.218 169.422 C 167.126 168.820,167.052 169.313,167.052 170.518 M301.360 225.299 C 301.360 229.243,301.420 230.803,301.492 228.765 C 301.565 226.727,301.564 223.500,301.492 221.593 C 301.419 219.687,301.359 221.355,301.360 225.299 M301.362 257.769 C 301.362 262.042,301.421 263.790,301.492 261.653 C 301.564 259.517,301.564 256.021,301.492 253.884 C 301.421 251.748,301.362 253.496,301.362 257.769 M301.362 290.837 C 301.362 295.110,301.421 296.858,301.492 294.721 C 301.564 292.585,301.564 289.089,301.492 286.952 C 301.421 284.816,301.362 286.564,301.362 290.837 " stroke="none" fill="#d80c44" fill-rule="evenodd"></path></g></svg>